HIERARCHY
ROOT Hips
{
	OFFSET 0.000000 0.000000 0.000000
	CHANNELS 6 Xposition Yposition Zposition Zrotation Yrotation Xrotation 
	JOINT LHipJoint
	{
		OFFSET 0.000000 0.000000 0.000000
		CHANNELS 3 Zrotation Yrotation Xrotation
		JOINT LeftUpLeg
		{
			OFFSET 1.363060 -1.794630 0.839290
			CHANNELS 3 Zrotation Yrotation Xrotation
			JOINT LeftLeg
			{
				OFFSET 2.448110 -6.726130 0.000000
				CHANNELS 3 Zrotation Yrotation Xrotation
				JOINT LeftFoot
				{
					OFFSET 2.562200 -7.039590 0.000000
					CHANNELS 3 Zrotation Yrotation Xrotation
					JOINT LeftToeBase
					{
						OFFSET 0.157640 -0.433110 2.322550
						CHANNELS 3 Zrotation Yrotation Xrotation
						End Site
						{
							OFFSET 0.000000 0.000000 0.000000
						}
					}
				}
			}
		}
	}
	JOINT RHipJoint
	{
		OFFSET 0.000000 0.000000 0.000000
		CHANNELS 3 Zrotation Yrotation Xrotation
		JOINT RightUpLeg
		{
			OFFSET -1.305520 -1.794630 0.839290
			CHANNELS 3 Zrotation Yrotation Xrotation
			JOINT RightLeg
			{
				OFFSET -2.542530 -6.985550 0.000000
				CHANNELS 3 Zrotation Yrotation Xrotation
				JOINT RightFoot
				{
					OFFSET -2.568260 -7.056230 0.000000
					CHANNELS 3 Zrotation Yrotation Xrotation
					JOINT RightToeBase
					{
						OFFSET -0.164730 -0.452590 2.363150
						CHANNELS 3 Zrotation Yrotation Xrotation
						End Site
						{
							OFFSET 0.000000 0.000000 0.000000
						}
					}
				}
			}
		}
	}
	JOINT LowerBack
	{
		OFFSET 0.000000 0.000000 0.000000
		CHANNELS 3 Zrotation Yrotation Xrotation
		JOINT Spine
		{
			OFFSET 0.028270 2.035590 -0.193380
			CHANNELS 3 Zrotation Yrotation Xrotation
			JOINT Spine1
			{
				OFFSET 0.056720 2.048850 -0.042750
				CHANNELS 3 Zrotation Yrotation Xrotation
				JOINT Neck
				{
					OFFSET 0.000000 0.000000 0.000000
					CHANNELS 3 Zrotation Yrotation Xrotation
					JOINT Neck1
					{
						OFFSET -0.054170 1.746240 0.172020
						CHANNELS 3 Zrotation Yrotation Xrotation
						JOINT Head
						{
							OFFSET 0.104070 1.761360 -0.123970
							CHANNELS 3 Zrotation Yrotation Xrotation
							End Site
							{
								OFFSET 0.000000 0.000000 0.000000
							}
						}
					}
				}
				JOINT LeftShoulder
				{
					OFFSET 0.000000 0.000000 0.000000
					CHANNELS 3 Zrotation Yrotation Xrotation
					JOINT LeftArm
					{
						OFFSET 3.362410 1.200890 -0.311210
						CHANNELS 3 Zrotation Yrotation Xrotation
						JOINT LeftForeArm
						{
							OFFSET 4.983000 -0.000000 -0.000000
							CHANNELS 3 Zrotation Yrotation Xrotation
							JOINT LeftHand
							{
								OFFSET 3.483560 -0.000000 -0.000000
								CHANNELS 3 Zrotation Yrotation Xrotation
								JOINT LeftFingerBase
								{
									OFFSET 0.000000 0.000000 0.000000
									CHANNELS 3 Zrotation Yrotation Xrotation
									JOINT LeftHandIndex1
									{
										OFFSET 0.715260 -0.000000 -0.000000
										CHANNELS 3 Zrotation Yrotation Xrotation
										End Site
										{
											OFFSET 0.000000 0.000000 0.000000
										}
									}
								}
								JOINT LThumb
								{
									OFFSET 0.000000 0.000000 0.000000
									CHANNELS 3 Zrotation Yrotation Xrotation
									End Site
									{
										OFFSET 0.000000 0.000000 0.000000
									}
								}
							}
						}
					}
				}
				JOINT RightShoulder
				{
					OFFSET 0.000000 0.000000 0.000000
					CHANNELS 3 Zrotation Yrotation Xrotation
					JOINT RightArm
					{
						OFFSET -3.136600 1.374050 -0.404650
						CHANNELS 3 Zrotation Yrotation Xrotation
						JOINT RightForeArm
						{
							OFFSET -5.241900 -0.000000 -0.000000
							CHANNELS 3 Zrotation Yrotation Xrotation
							JOINT RightHand
							{
								OFFSET -3.444170 -0.000000 -0.000000
								CHANNELS 3 Zrotation Yrotation Xrotation
								JOINT RightFingerBase
								{
									OFFSET 0.000000 0.000000 0.000000
									CHANNELS 3 Zrotation Yrotation Xrotation
									JOINT RightHandIndex1
									{
										OFFSET -0.622530 -0.000000 -0.000000
										CHANNELS 3 Zrotation Yrotation Xrotation
										End Site
										{
											OFFSET 0.000000 0.000000 0.000000
										}
									}
								}
								JOINT RThumb
								{
									OFFSET 0.000000 0.000000 0.000000
									CHANNELS 3 Zrotation Yrotation Xrotation
									End Site
									{
										OFFSET 0.000000 0.000000 0.000000
									}
								}
							}
						}
					}
				}
			}
		}
	}
}
MOTION
Frames: 10
Frame Time: 0.008333
-0.289450 17.813143 -26.833997 0.524525 50.554401 4.725488 -6.349903 -2.128973 -0.679502 -4.205688 -19.448524 -12.880725 -0.126891 8.147771 22.302122 2.496979 -7.166360 8.964828 0.300300 -3.523700 -9.740500 4.578939 1.429896 1.108124 12.438232 -20.108788 -8.020334 -1.183427 -8.558688 22.391961 10.499868 -39.899292 -29.097058 -0.036300 -1.229400 3.380300 6.543712 7.797928 3.264817 0.167731 10.451084 -2.576694 -4.450645 5.293817 -2.543045 10.122948 18.581779 2.705300 -3.033078 24.073561 3.295791 -3.694200 11.986100 5.172600 3.823561 -2.111582 0.517732 -90.777525 6.495489 13.035968 16.039109 -25.260771 -3.346757 0.164065 0.377496 -4.061586 11.558425 2.330568 0.393900 -7.125000 0.000000 0.000000 -12.168200 31.822700 4.002100 -3.003712 0.949886 0.218591 87.912591 -0.731390 15.051915 -11.739842 20.147923 -2.079873 0.004214 -0.416227 -3.142251 -12.728928 2.094332 -0.568400 7.125000 0.000000 0.000000 10.618700 -27.348800 4.627500 
-0.282563 17.812145 -26.836991 0.852848 50.372248 4.957806 -6.370833 -2.119834 -0.680204 -4.456122 -19.495543 -12.776151 -0.133711 8.141820 22.273532 2.446345 -6.948828 8.918029 0.302400 -3.535400 -9.773100 4.571259 1.418520 1.107499 12.139775 -19.981476 -8.007175 -1.200583 -8.593159 22.492655 10.496775 -39.870827 -29.055370 -0.033900 -1.188300 3.267100 6.325416 7.811392 3.279608 0.139636 10.457410 -2.564035 -4.377504 5.301528 -2.567550 10.038037 18.669462 2.869883 -3.056569 24.185272 3.143799 -3.699700 12.038400 5.097900 3.822989 -2.123410 0.517809 -90.875926 6.282943 12.917035 16.000780 -25.221728 -3.337156 0.175785 0.374542 -3.947284 11.962978 2.141876 0.369200 -7.125000 0.000000 0.000000 -11.832200 31.647900 3.938100 -3.014223 0.945715 0.218831 88.265808 -0.899593 14.043541 -11.651936 20.029811 -2.055894 -0.002999 -0.412738 -1.784475 -12.750681 2.218794 -0.596900 7.125000 0.000000 0.000000 10.589300 -27.226800 4.645300 
-0.274778 17.810348 -26.832200 0.945237 50.295813 4.929772 -6.373446 -2.105934 -0.666848 -4.572483 -19.479083 -12.627796 -0.132609 8.153105 22.290996 2.428535 -6.875488 8.836088 0.303300 -3.540900 -9.788400 4.566785 1.405373 1.107627 12.012335 -19.989848 -7.847848 -1.203109 -8.593995 22.490490 10.488185 -39.844255 -29.015947 -0.034200 -1.193300 3.280800 6.217296 7.827317 3.314626 0.139041 10.474633 -2.540914 -4.333775 5.313582 -2.580224 10.092814 18.694556 2.983036 -3.114515 24.210455 3.015936 -3.735700 12.049400 5.052700 3.821931 -2.135587 0.520260 -90.814291 6.142853 13.179959 16.032707 -25.272175 -3.354043 0.183958 0.378490 -4.336461 12.358155 2.128412 0.378200 -7.125000 0.000000 0.000000 -11.526900 31.642000 3.834400 -3.022100 0.943392 0.219484 88.639757 -1.130846 13.222471 -11.628019 19.998717 -2.044245 -0.002625 -0.404702 -0.911143 -12.145850 2.287576 -0.580800 7.125000 0.000000 0.000000 11.037000 -27.168700 4.863800 
-0.268689 17.810348 -26.831003 0.927450 50.138561 4.916907 -6.368852 -2.102969 -0.658622 -4.576178 -19.414853 -12.604651 -0.131706 8.156221 22.292570 2.415748 -6.808506 8.803126 0.311900 -3.590000 -9.926100 4.566879 1.406096 1.107074 11.983725 -19.866992 -7.800251 -1.200885 -8.596259 22.494324 10.472600 -39.805462 -28.997631 -0.033800 -1.187300 3.264300 6.215829 7.809191 3.301977 0.117974 10.450715 -2.563357 -4.368309 5.299302 -2.595934 9.884017 18.770223 2.904426 -2.902939 24.306592 3.081985 -3.630100 12.096600 5.047400 3.825032 -2.127977 0.516447 -90.772559 6.007690 13.160553 16.006476 -25.243154 -3.348023 0.192738 0.382370 -4.414831 12.748882 2.187193 0.402800 -7.125000 0.000000 0.000000 -11.233000 31.707500 3.715200 -3.029117 0.953681 0.218590 88.981117 -1.180347 12.428279 -11.555351 19.905852 -2.029668 -0.011575 -0.406647 -0.243158 -12.597861 2.472769 -0.644800 7.125000 0.000000 0.000000 10.681200 -26.978000 4.750600 
-0.262301 17.809450 -26.827409 0.983236 50.024868 4.913649 -6.367332 -2.096005 -0.649057 -4.644706 -19.363670 -12.531644 -0.129437 8.166818 22.312577 2.405169 -6.764446 8.742444 0.316100 -3.614300 -9.994100 4.565416 1.399521 1.108043 11.900907 -19.792650 -7.673618 -1.195022 -8.584638 22.455776 10.467151 -39.794624 -28.996175 -0.033600 -1.183700 3.254500 6.143885 7.816648 3.308518 0.093269 10.456829 -2.561593 -4.370140 5.303565 -2.606199 9.864765 18.815735 2.945167 -2.851623 24.357162 3.015995 -3.613800 12.120800 5.015000 3.824900 -2.131853 0.516427 -90.688934 5.863236 13.340220 16.004427 -25.244942 -3.350396 0.199494 0.384983 -4.612696 13.057874 2.186488 0.412200 -7.125000 0.000000 0.000000 -10.994900 31.712900 3.632400 -3.035356 0.954740 0.219664 89.235933 -1.316637 11.845289 -11.523362 19.864270 -2.021206 -0.014514 -0.404766 0.265203 -12.563908 2.557239 -0.661400 7.125000 0.000000 0.000000 10.699100 -26.894900 4.780100 
-0.255814 17.808551 -26.823217 1.015584 49.920166 4.893062 -6.363847 -2.090339 -0.638662 -4.696431 -19.299820 -12.462765 -0.127387 8.176393 22.330746 2.400048 -6.743614 8.687927 0.320300 -3.637900 -10.060000 4.564461 1.392889 1.109035 11.837346 -19.724397 -7.543510 -1.187974 -8.571585 22.412201 10.458953 -39.780679 -29.000274 -0.033500 -1.182100 3.250100 6.091097 7.837387 3.308367 0.057908 10.479753 -2.559381 -4.393388 5.317290 -2.609684 9.991894 18.859146 3.091052 -2.906314 24.399210 2.833348 -3.659700 12.140200 4.955200 3.822662 -2.143997 0.519389 -90.554958 5.722438 13.625878 16.006494 -25.249472 -3.352972 0.203561 0.386646 -4.837969 13.253000 2.168558 0.414200 -7.125000 0.000000 0.000000 -10.842700 31.698900 3.584200 -3.042299 0.947514 0.221889 89.430335 -1.458098 11.434758 -11.514971 19.853731 -2.019289 -0.015705 -0.404110 0.506719 -12.528002 2.589914 -0.666600 7.125000 0.000000 0.000000 10.723000 -26.863000 4.799300 
-0.249226 17.807953 -26.819025 1.039183 49.813883 4.870017 -6.359241 -2.085370 -0.627988 -4.740041 -19.225533 -12.401070 -0.125894 8.184722 22.346099 2.397992 -6.736024 8.641776 0.323300 -3.654700 -10.107100 4.563992 1.387021 1.109864 11.781296 -19.652739 -7.413427 -1.179578 -8.555722 22.360360 10.451275 -39.768395 -29.005448 -0.033300 -1.178500 3.240000 6.043976 7.866115 3.298708 0.016265 10.512745 -2.556520 -4.425488 5.335717 -2.604265 10.171203 18.882768 3.207552 -2.965635 24.420513 2.703315 -3.710000 12.151500 4.923200 3.821328 -2.153327 0.521411 -90.411677 5.557483 13.879271 15.982699 -25.217908 -3.344466 0.206375 0.386502 -4.920563 13.363020 2.133079 0.409600 -7.125000 0.000000 0.000000 -10.754000 31.666400 3.562500 -3.047567 0.942019 0.225376 89.568970 -1.606836 11.178587 -11.522941 19.865502 -2.023021 -0.016975 -0.405297 0.581089 -12.611128 2.609123 -0.675700 7.125000 0.000000 0.000000 10.659000 -26.841800 4.775100 
-0.242439 17.807653 -26.814933 1.050720 49.695957 4.841970 -6.353498 -2.081240 -0.616878 -4.774864 -19.138513 -12.346624 -0.124419 8.192947 22.360789 2.396641 -6.729298 8.599437 0.324800 -3.663300 -10.131200 4.563869 1.381575 1.110566 11.731603 -19.574664 -7.285383 -1.170297 -8.537733 22.301217 10.448206 -39.761455 -28.996620 -0.032900 -1.171600 3.221100 6.002755 7.892939 3.275184 -0.017002 10.542321 -2.549658 -4.444825 5.353098 -2.587476 10.365307 18.908392 3.336319 -3.047321 24.449516 2.583748 -3.768100 12.167200 4.897900 3.820171 -2.162488 0.523085 -90.294973 5.380424 14.081773 15.944002 -25.165988 -3.329451 0.207823 0.384374 -4.921652 13.385991 2.058162 0.393300 -7.125000 0.000000 0.000000 -10.727700 31.593600 3.572600 -3.050960 0.936077 0.229743 89.639743 -1.772627 11.076876 -11.549515 19.901907 -2.031498 -0.017325 -0.406668 0.530717 -12.668614 2.620522 -0.681800 7.125000 0.000000 0.000000 10.615100 -26.828500 4.758200 
-0.235153 17.807753 -26.811939 1.051316 49.558284 4.818029 -6.347606 -2.077934 -0.606410 -4.800738 -19.048804 -12.304308 -0.123107 8.199979 22.372560 2.392106 -6.705822 8.562376 0.326300 -3.671200 -10.153400 4.564191 1.376958 1.111232 11.684865 -19.492732 -7.176510 -1.161008 -8.518510 22.237386 10.452667 -39.757988 -28.949441 -0.032300 -1.159400 3.187600 5.975046 7.906270 3.236141 -0.037477 10.553818 -2.543085 -4.450449 5.361264 -2.562620 10.497777 18.945852 3.445369 -3.097495 24.500603 2.513110 -3.803800 12.194700 4.883400 3.819880 -2.168280 0.523329 -90.225523 5.204718 14.187479 15.892926 -25.097743 -3.309178 0.208502 0.380823 -4.802786 13.352022 1.966817 0.371800 -7.125000 0.000000 0.000000 -10.743500 31.503900 3.601600 -3.052620 0.932757 0.234198 89.673779 -1.941918 11.016826 -11.580592 19.944118 -2.041416 -0.018341 -0.407800 0.554103 -12.748945 2.661299 -0.695700 7.125000 0.000000 0.000000 10.551400 -26.785500 4.739500 
-0.227667 17.808352 -26.809643 1.052290 49.396432 4.803303 -6.341748 -2.074685 -0.595829 -4.825692 -18.951521 -12.270398 -0.121996 8.206401 22.381443 2.384164 -6.664806 8.528311 0.327300 -3.677000 -10.169700 4.564613 1.373451 1.111649 11.633002 -19.398475 -7.080046 -1.152120 -8.499006 22.172335 10.462259 -39.756630 -28.877164 -0.031400 -1.144200 3.145700 5.947837 7.901497 3.186378 -0.044561 10.541507 -2.537861 -4.436240 5.356522 -2.534359 10.503488 18.988661 3.461327 -3.053644 24.567121 2.570157 -3.782900 12.231500 4.902400 3.821328 -2.165219 0.520497 -90.213001 5.033961 14.196296 15.839439 -25.027417 -3.288305 0.208761 0.377944 -4.693919 13.310165 1.903417 0.356400 -7.125000 0.000000 0.000000 -10.768700 31.441500 3.626800 -3.051125 0.937206 0.238472 89.673564 -2.118270 11.014307 -11.615456 19.991708 -2.052335 -0.019602 -0.408545 0.607888 -12.826008 2.724964 -0.714700 7.125000 0.000000 0.000000 10.488300 -26.719900 4.726700 
